<svg width="55" height="29" viewBox="0 0 55 29" fill="none" xmlns="http://www.w3.org/2000/svg">
<path d="M14.5 29C22.5081 29 29 22.5081 29 14.5C29 6.49187 22.5081 0 14.5 0C6.49187 0 0 6.49187 0 14.5C0 22.5081 6.49187 29 14.5 29Z" fill="white"/>
<path d="M10.88 22V8H13.02L19.14 18.22H18.02L24.04 8H26.18L26.2 22H23.74L23.72 11.86H24.24L19.12 20.4H17.96L12.76 11.86H13.36V22H10.88Z" fill="#1A1537"/>
<path d="M34.7616 22.14C33.5749 22.14 32.5349 21.9067 31.6416 21.44C30.7616 20.96 30.0749 20.3067 29.5816 19.48C29.1016 18.6533 28.8616 17.7133 28.8616 16.66C28.8616 15.5933 29.0949 14.6533 29.5616 13.84C30.0416 13.0133 30.6949 12.3667 31.5216 11.9C32.3616 11.4333 33.3149 11.2 34.3816 11.2C35.4216 11.2 36.3482 11.4267 37.1616 11.88C37.9749 12.3333 38.6149 12.9733 39.0816 13.8C39.5482 14.6267 39.7816 15.6 39.7816 16.72C39.7816 16.8267 39.7749 16.9467 39.7616 17.08C39.7616 17.2133 39.7549 17.34 39.7416 17.46H30.8416V15.8H38.4216L37.4416 16.32C37.4549 15.7067 37.3282 15.1667 37.0616 14.7C36.7949 14.2333 36.4282 13.8667 35.9616 13.6C35.5082 13.3333 34.9816 13.2 34.3816 13.2C33.7682 13.2 33.2282 13.3333 32.7616 13.6C32.3082 13.8667 31.9482 14.24 31.6816 14.72C31.4282 15.1867 31.3016 15.74 31.3016 16.38V16.78C31.3016 17.42 31.4482 17.9867 31.7416 18.48C32.0349 18.9733 32.4482 19.3533 32.9816 19.62C33.5149 19.8867 34.1282 20.02 34.8216 20.02C35.4216 20.02 35.9616 19.9267 36.4416 19.74C36.9216 19.5533 37.3482 19.26 37.7216 18.86L39.0616 20.4C38.5816 20.96 37.9749 21.3933 37.2416 21.7C36.5216 21.9933 35.6949 22.14 34.7616 22.14ZM46.703 22.14C45.6763 22.14 44.7496 21.9133 43.923 21.46C43.1096 20.9933 42.4696 20.3533 42.003 19.54C41.5363 18.7267 41.303 17.7667 41.303 16.66C41.303 15.5533 41.5363 14.5933 42.003 13.78C42.4696 12.9667 43.1096 12.3333 43.923 11.88C44.7496 11.4267 45.6763 11.2 46.703 11.2C47.5963 11.2 48.3963 11.4 49.103 11.8C49.8096 12.1867 50.3696 12.78 50.783 13.58C51.1963 14.38 51.403 15.4067 51.403 16.66C51.403 17.9 51.203 18.9267 50.803 19.74C50.403 20.54 49.8496 21.14 49.143 21.54C48.4363 21.94 47.623 22.14 46.703 22.14ZM47.003 20C47.603 20 48.1363 19.8667 48.603 19.6C49.083 19.3333 49.463 18.9467 49.743 18.44C50.0363 17.9333 50.183 17.34 50.183 16.66C50.183 15.9667 50.0363 15.3733 49.743 14.88C49.463 14.3733 49.083 13.9867 48.603 13.72C48.1363 13.4533 47.603 13.32 47.003 13.32C46.403 13.32 45.863 13.4533 45.383 13.72C44.9163 13.9867 44.5363 14.3733 44.243 14.88C43.963 15.3733 43.823 15.9667 43.823 16.66C43.823 17.34 43.963 17.9333 44.243 18.44C44.5363 18.9467 44.9163 19.3333 45.383 19.6C45.863 19.8667 46.403 20 47.003 20ZM50.243 22V19.48L50.343 16.64L50.143 13.8V7.16003H52.623V22H50.243Z" fill="white"/>
</svg>
